HIERARCHY
ROOT reference
{
  OFFSET 0 0 0
  CHANNELS 6 Xposition Yposition Zposition Zrotation Xrotation Yrotation
  JOINT Hips
  {
    OFFSET 19.8941 91.4584 12.6699
    CHANNELS 3 Zrotation Xrotation Yrotation
    JOINT RightUpLeg
    {
      OFFSET -9.21136 -1.54315 -0.00338228
      CHANNELS 3 Zrotation Xrotation Yrotation
      JOINT RightLeg
      {
        OFFSET 0.100199 -41.8913 0.117885
        CHANNELS 3 Zrotation Xrotation Yrotation
        JOINT RightFoot
        {
          OFFSET -0.0312538 -39.9042 0.200326
          CHANNELS 3 Zrotation Xrotation Yrotation
          End Site
          {
            OFFSET 0 -7.69 17.5
          }
        }
      }
    }
    JOINT LeftUpLeg
    {
      OFFSET 9.2904 -1.6473 0.00344049
      CHANNELS 3 Zrotation Xrotation Yrotation
      JOINT LeftLeg
      {
        OFFSET 0.15381 -41.8817 -0.0541105
        CHANNELS 3 Zrotation Xrotation Yrotation
        JOINT LeftFoot
        {
          OFFSET 0.872932 -43.9846 -0.139608
          CHANNELS 3 Zrotation Xrotation Yrotation
          End Site
          {
            OFFSET 0 -7.69 17.5
          }
        }
      }
    }
    JOINT Spine
    {
      OFFSET 0.0768477 14.3139 0.027738
      CHANNELS 3 Zrotation Xrotation Yrotation
      JOINT Spine1
      {
        OFFSET -0.0133682 9.71866 0.00713354
        CHANNELS 3 Zrotation Xrotation Yrotation
        JOINT Spine2
        {
          OFFSET -0.0175262 10.1212 -0.00524987
          CHANNELS 3 Zrotation Xrotation Yrotation
          JOINT Spine3
          {
            OFFSET -0.00348171 9.71796 0.0104149
            CHANNELS 3 Zrotation Xrotation Yrotation
            JOINT Neck
            {
              OFFSET -0.0845439 10.3822 0.044921
              CHANNELS 3 Zrotation Xrotation Yrotation
              JOINT Head
              {
                OFFSET -0.0310878 9.44025 0.0694291
                CHANNELS 3 Zrotation Xrotation Yrotation
                End Site
                {
                  OFFSET 0 15.95 0
                }
              }
            }
            JOINT RightShoulder
            {
              OFFSET -3.20882 6.90619 -0.0326675
              CHANNELS 3 Zrotation Xrotation Yrotation
              JOINT RightArm
              {
                OFFSET -12.8514 -0.0142271 -0.0483735
                CHANNELS 3 Zrotation Xrotation Yrotation
                JOINT RightForeArm
                {
                  OFFSET -26.4475 -0.0994884 -0.035967
                  CHANNELS 3 Zrotation Xrotation Yrotation
                  JOINT RightHand
                  {
                    OFFSET -25.9226 -0.102631 -0.136889
                    CHANNELS 3 Zrotation Xrotation Yrotation
                    JOINT RightHandThumb1
                    {
                      OFFSET -2.48905 0.190105 3.12053
                      CHANNELS 3 Zrotation Xrotation Yrotation
                      JOINT RightHandThumb2
                      {
                        OFFSET -3.68274 0 0
                        CHANNELS 3 Zrotation Xrotation Yrotation
                        JOINT RightHandThumb3
                        {
                          OFFSET -2.55832 0 0
                          CHANNELS 3 Zrotation Xrotation Yrotation
                          End Site
                          {
                            OFFSET -2.194 0 0
                          }
                        }
                      }
                    }
                    JOINT RightInHandIndex
                    {
                      OFFSET -3.22368 0.508421 1.97842
                      CHANNELS 3 Zrotation Xrotation Yrotation
                      JOINT RightHandIndex1
                      {
                        OFFSET -5.21684 -0.091368 0.999158
                        CHANNELS 3 Zrotation Xrotation Yrotation
                        JOINT RightHandIndex2
                        {
                          OFFSET -3.61937 0 0
                          CHANNELS 3 Zrotation Xrotation Yrotation
                          JOINT RightHandIndex3
                          {
                            OFFSET -2.0521 0 0
                            CHANNELS 3 Zrotation Xrotation Yrotation
                            End Site
                            {
                              OFFSET -1.805 0 0
                            }
                          }
                        }
                      }
                    }
                    JOINT RightInHandMiddle
                    {
                      OFFSET -3.38211 0.517263 0.756737
                      CHANNELS 3 Zrotation Xrotation Yrotation
                      JOINT RightHandMiddle1
                      {
                        OFFSET -5.17411 -0.084 0.313895
                        CHANNELS 3 Zrotation Xrotation Yrotation
                        JOINT RightHandMiddle2
                        {
                          OFFSET -3.94947 0 0
                          CHANNELS 3 Zrotation Xrotation Yrotation
                          JOINT RightHandMiddle3
                          {
                            OFFSET -2.47579 0 0
                            CHANNELS 3 Zrotation Xrotation Yrotation
                            End Site
                            {
                              OFFSET -1.975 0 0
                            }
                          }
                        }
                      }
                    }
                    JOINT RightInHandRing
                    {
                      OFFSET -3.36516 0.537895 -0.128947
                      CHANNELS 3 Zrotation Xrotation Yrotation
                      JOINT RightHandRing1
                      {
                        OFFSET -4.63474 -0.022105 -0.478947
                        CHANNELS 3 Zrotation Xrotation Yrotation
                        JOINT RightHandRing2
                        {
                          OFFSET -3.44238 0 0
                          CHANNELS 3 Zrotation Xrotation Yrotation
                          JOINT RightHandRing3
                          {
                            OFFSET -2.3881 0 0
                            CHANNELS 3 Zrotation Xrotation Yrotation
                            End Site
                            {
                              OFFSET -1.857 0 0
                            }
                          }
                        }
                      }
                    }
                    JOINT RightInHandPinky
                    {
                      OFFSET -3.16105 0.469368 -1.20179
                      CHANNELS 3 Zrotation Xrotation Yrotation
                      JOINT RightHandPinky1
                      {
                        OFFSET -4.14105 -0.022105 -1.09053
                        CHANNELS 3 Zrotation Xrotation Yrotation
                        JOINT RightHandPinky2
                        {
                          OFFSET -2.75653 0 0
                          CHANNELS 3 Zrotation Xrotation Yrotation
                          JOINT RightHandPinky3
                          {
                            OFFSET -1.74189 0 0
                            CHANNELS 3 Zrotation Xrotation Yrotation
                            End Site
                            {
                              OFFSET -1.645 0 0
                            }
                          }
                        }
                      }
                    }
                  }
                }
              }
            }
            JOINT LeftShoulder
            {
              OFFSET 3.19355 6.9059 0.0487761
              CHANNELS 3 Zrotation Xrotation Yrotation
              JOINT LeftArm
              {
                OFFSET 12.7349 -0.00433124 -0.0458964
                CHANNELS 3 Zrotation Xrotation Yrotation
                JOINT LeftForeArm
                {
                  OFFSET 26.4064 -0.194468 0.00909971
                  CHANNELS 3 Zrotation Xrotation Yrotation
                  JOINT LeftHand
                  {
                    OFFSET 25.9027 0.0515579 -0.250056
                    CHANNELS 3 Zrotation Xrotation Yrotation
                    JOINT LeftHandThumb1
                    {
                      OFFSET 2.48905 0.190105 3.12053
                      CHANNELS 3 Zrotation Xrotation Yrotation
                      JOINT LeftHandThumb2
                      {
                        OFFSET 3.68274 0 0
                        CHANNELS 3 Zrotation Xrotation Yrotation
                        JOINT LeftHandThumb3
                        {
                          OFFSET 2.55832 0 0
                          CHANNELS 3 Zrotation Xrotation Yrotation
                          End Site
                          {
                            OFFSET 2.194 0 0
                          }
                        }
                      }
                    }
                    JOINT LeftInHandIndex
                    {
                      OFFSET 3.22368 0.508421 1.97842
                      CHANNELS 3 Zrotation Xrotation Yrotation
                      JOINT LeftHandIndex1
                      {
                        OFFSET 5.21684 -0.091368 0.999158
                        CHANNELS 3 Zrotation Xrotation Yrotation
                        JOINT LeftHandIndex2
                        {
                          OFFSET 3.61937 0 0
                          CHANNELS 3 Zrotation Xrotation Yrotation
                          JOINT LeftHandIndex3
                          {
                            OFFSET 2.0521 0 0
                            CHANNELS 3 Zrotation Xrotation Yrotation
                            End Site
                            {
                              OFFSET 1.805 0 0
                            }
                          }
                        }
                      }
                    }
                    JOINT LeftInHandMiddle
                    {
                      OFFSET 3.38211 0.517263 0.756737
                      CHANNELS 3 Zrotation Xrotation Yrotation
                      JOINT LeftHandMiddle1
                      {
                        OFFSET 5.17411 -0.084 0.313895
                        CHANNELS 3 Zrotation Xrotation Yrotation
                        JOINT LeftHandMiddle2
                        {
                          OFFSET 3.94947 0 0
                          CHANNELS 3 Zrotation Xrotation Yrotation
                          JOINT LeftHandMiddle3
                          {
                            OFFSET 2.47579 0 0
                            CHANNELS 3 Zrotation Xrotation Yrotation
                            End Site
                            {
                              OFFSET 1.975 0 0
                            }
                          }
                        }
                      }
                    }
                    JOINT LeftInHandRing
                    {
                      OFFSET 3.36516 0.537895 -0.128947
                      CHANNELS 3 Zrotation Xrotation Yrotation
                      JOINT LeftHandRing1
                      {
                        OFFSET 4.63474 -0.022105 -0.478947
                        CHANNELS 3 Zrotation Xrotation Yrotation
                        JOINT LeftHandRing2
                        {
                          OFFSET 3.44238 0 0
                          CHANNELS 3 Zrotation Xrotation Yrotation
                          JOINT LeftHandRing3
                          {
                            OFFSET 2.3881 0 0
                            CHANNELS 3 Zrotation Xrotation Yrotation
                            End Site
                            {
                              OFFSET 1.857 0 0
                            }
                          }
                        }
                      }
                    }
                    JOINT LeftInHandPinky
                    {
                      OFFSET 3.16105 0.469368 -1.20179
                      CHANNELS 3 Zrotation Xrotation Yrotation
                      JOINT LeftHandPinky1
                      {
                        OFFSET 4.14105 -0.022105 -1.09053
                        CHANNELS 3 Zrotation Xrotation Yrotation
                        JOINT LeftHandPinky2
                        {
                          OFFSET 2.75653 0 0
                          CHANNELS 3 Zrotation Xrotation Yrotation
                          JOINT LeftHandPinky3
                          {
                            OFFSET 1.74189 0 0
                            CHANNELS 3 Zrotation Xrotation Yrotation
                            End Site
                            {
                              OFFSET 1.645 0 0
                            }
                          }
                        }
                      }
                    }
                  }
                }
              }
            }
          }
        }
      }
    }
  }
}
MOTION
Frames: 2
Frame Time: 0.00416667
7.500000000000000000e+02 0.000000000000000000e+00 0.000000000000000000e+00 0.000000000000000000e+00 0.000000000000000000e+00 0.000000000000000000e+00 2.878694160484268849e+01 -2.082126896750095568e+01 -1.110256112186937258e+02 -1.958966016236158225e+01 -5.130515015292834136e+01 -1.645397546630091767e+01 -4.330087978884770372e+00 1.136488301044101235e+01 2.336175973362244207e+01 9.617790997226148164e+00 2.524242715216097110e+00 4.072539722283594443e+01 1.051769671636984427e+01 -4.048185316155930025e+01 1.820508840587143951e+01 -9.174432504368372765e-01 3.212287451205388944e+00 -1.292633651663162020e+01 -1.281619617624894225e+01 5.180188822356386780e+00 -1.512294259859537249e+01 4.905478485178675463e+00 2.026574620109862579e+01 5.053873981652155400e+00 1.345518527456629476e+00 4.743789042277867907e+00 1.862430338044839040e+00 2.149499220320218562e+00 7.314848565085501519e+00 3.326825726207869316e+00 -1.489529318238469457e+00 -1.097414147415945451e-01 -5.660669204900212748e-01 -1.508214624899314238e+00 -1.023851735701720722e-01 -5.669824562394840672e-01 -2.854187795149952933e+01 -2.580108884363879973e+00 -1.003537949152774011e+01 -8.542760274296501422e+00 -5.988436383278595621e+00 1.551698633397617222e+01 3.845265298480625660e+01 2.076408950183594371e+01 6.057105975154387778e+01 8.303850921278387887e+01 -7.870973518210381314e+01 1.191301472301177427e+02 7.339878503472594851e+00 -3.033719260410021157e+00 -7.902369187272456408e+00 2.818400000000000105e+01 1.072940000000000005e+01 1.915919999999999845e+01 -3.024318615984920508e-15 8.159703130880210279e-16 -1.000000000000000000e+01 1.257424881673319661e-15 1.547347980318677478e-15 -1.000000000000000000e+01 -6.961653182364955147e-16 1.120052343634936057e-15 3.209285835057955729e-15 1.998179999999999978e+01 8.718970000000000331e-01 2.396399999999999864e+00 2.400000000000000000e+01 -4.338424229233161752e-15 -7.250046882207280255e-15 2.000000000000000000e+01 3.915797607427999960e-16 -8.125144406551723050e-16 -6.961653182364955147e-16 1.120052343634936057e-15 3.209285835057955729e-15 2.000000000000000000e+01 5.487276026189663206e-16 -1.429300183459994477e-14 2.400000000000000000e+01 -5.229215263724078488e-15 -4.877816459077420757e-15 2.000000000000000000e+01 7.173057520537810163e-16 1.083323841316452537e-14 -6.961653182364955147e-16 1.120052343634936057e-15 3.209285835057955729e-15 1.997479999999999833e+01 -1.025649999999999951e+00 -2.819380000000000219e+00 2.400000000000000000e+01 -1.601080699160603727e-15 -6.269468503721327435e-15 2.000000000000000000e+01 -2.614996693850792852e-15 -2.431197511986539703e-15 -6.961653182364955147e-16 1.120052343634936057e-15 3.209285835057955729e-15 1.978150000000000119e+01 -3.009479999999999933e+00 -8.305149999999999366e+00 2.400000000000000000e+01 -1.576032128297317203e-15 -6.953827668625638700e-15 2.000000000000000000e+01 -3.868750184748028724e-15 -4.267830900725250718e-15 -2.852425694477337359e+01 -6.688774280824896223e+00 -1.599552075257598460e+01 -5.564047588502948116e+00 4.826838317997349037e+01 -9.670813541937233992e+01 1.220530094487964234e+00 -4.407188222807121036e+01 -4.714865918114625742e+00 -1.405075254465293177e+01 1.438439449513426993e+01 1.170208012643585960e+01 -2.818400000000000105e+01 1.072940000000000005e+01 -1.915919999999999845e+01 4.193723342063672775e-15 -4.446010598662579943e-15 1.000000000000000000e+01 8.716207396568386591e-15 -1.175347621807984484e-15 1.000000000000000000e+01 3.976390700195476364e-15 1.320082214283216074e-15 9.891703298608802360e-16 -1.998179999999999978e+01 8.718970000000000331e-01 -2.396399999999999864e+00 -2.400000000000000000e+01 2.496854355394667052e-15 3.025648716814085052e-15 -2.000000000000000000e+01 4.401896359488984448e-15 4.145157369557930406e-15 3.976390700195476364e-15 1.320082214283216074e-15 9.891703298608802360e-16 -2.000000000000000000e+01 1.552791840310556590e-15 5.444655721807911804e-15 -2.400000000000000000e+01 -4.542530684641165271e-15 4.079353898663143063e-15 -2.000000000000000000e+01 3.280933358869961126e-15 3.095698129803565090e-15 3.976390700195476364e-15 1.320082214283216074e-15 9.891703298608802360e-16 -1.997479999999999833e+01 -1.025649999999999951e+00 2.819380000000000219e+00 -2.400000000000000000e+01 2.803606282443020668e-16 -1.643124140157986563e-15 -2.000000000000000000e+01 4.248955273457684224e-15 -2.358590358108477473e-15 3.976390700195476364e-15 1.320082214283216074e-15 9.891703298608802360e-16 -1.978150000000000119e+01 -3.009479999999999933e+00 8.305149999999999366e+00 -2.400000000000000000e+01 5.343391206237333081e-15 -4.122663942851063910e-16 -2.000000000000000000e+01 1.891276181318302669e-17 2.282318019922387860e-15
7.500000000000000000e+02 0.000000000000000000e+00 0.000000000000000000e+00 0.000000000000000000e+00 0.000000000000000000e+00 0.000000000000000000e+00 2.878647896175468901e+01 -2.081138871398605161e+01 -1.110388121085622828e+02 -1.956678602497386166e+01 -5.130194774324814233e+01 -1.643799581322032566e+01 -4.326630082680154921e+00 1.135249521681690155e+01 2.336099553077237090e+01 9.619413639858599652e+00 2.531684973416353124e+00 4.072824209536243956e+01 1.053518106266743715e+01 -4.047542675883857299e+01 1.821651043368107992e+01 -9.158446541740086211e-01 3.207325561761285471e+00 -1.292641693190374141e+01 -1.281625997992775190e+01 5.180484953388401870e+00 -1.511948093636138601e+01 4.911885130910302877e+00 2.025755660140862346e+01 4.999483924966283688e+00 1.345321414784846903e+00 4.746779941927481872e+00 1.848022154532983796e+00 2.149080803412477536e+00 7.326845201767282489e+00 3.304860132687628127e+00 -1.490247920355725730e+00 -1.107247039207522460e-01 -5.619090908231015868e-01 -1.508994950139979752e+00 -1.034129202954453264e-01 -5.627405932011767531e-01 -2.855498187642637120e+01 -2.592263286790631227e+00 -9.958560559736167050e+00 -8.518091775826883705e+00 -5.977068723461374411e+00 1.551915635023730822e+01 3.862050883618753971e+01 2.066740827912307665e+01 6.042511532123555895e+01 8.447549978182571806e+01 -7.866434057266677371e+01 1.179999245376401404e+02 7.209052068005068037e+00 -3.069363942371239773e+00 -7.884524659350249820e+00 2.818400000000000105e+01 1.072940000000000005e+01 1.915919999999999845e+01 -2.884467235062457880e-15 6.045562490414815321e-16 -1.000000000000000000e+01 1.288936210253065285e-15 1.447629721740576492e-15 -1.000000000000000000e+01 -7.563548812620839316e-16 1.182114846720479118e-15 3.226356761353728723e-15 1.998179999999999978e+01 8.718970000000000331e-01 2.396399999999999864e+00 2.400000000000000000e+01 -4.210481269502778904e-15 -6.905847892485548832e-15 2.000000000000000000e+01 3.291329983980927870e-16 -6.783321982433707667e-16 -7.563548812620839316e-16 1.182114846720479118e-15 3.226356761353728723e-15 2.000000000000000000e+01 6.458094094053466350e-16 -1.359934722087779166e-14 2.400000000000000000e+01 -4.986461320155825996e-15 -4.328906089713793654e-15 2.000000000000000000e+01 6.231327370185312012e-16 1.082751170956165956e-14 -7.563548812620839316e-16 1.182114846720479118e-15 3.226356761353728723e-15 1.997479999999999833e+01 -1.025649999999999951e+00 -2.819380000000000219e+00 2.400000000000000000e+01 -1.552607053112524004e-15 -5.825629918336850841e-15 2.000000000000000000e+01 -2.576772225210059710e-15 -2.354067901495236930e-15 -7.563548812620839316e-16 1.182114846720479118e-15 3.226356761353728723e-15 1.978150000000000119e+01 -3.009479999999999933e+00 -8.305149999999999366e+00 2.400000000000000000e+01 -1.550170018242064591e-15 -6.731401353367352406e-15 2.000000000000000000e+01 -3.850824115638724674e-15 -4.218859095455614752e-15 -2.853175581999438393e+01 -6.730055728353777411e+00 -1.601218814727166517e+01 -5.381678953568401980e+00 4.823505682438480591e+01 -9.695702906522753040e+01 1.523021410993402824e+00 -4.375982904030338005e+01 -4.265538023192879891e+00 -1.416858044955833229e+01 1.442519680373325741e+01 1.180030308529001637e+01 -2.818400000000000105e+01 1.072940000000000005e+01 -1.915919999999999845e+01 4.229437473759971412e-15 -4.341395645519438771e-15 1.000000000000000000e+01 8.616769239855919221e-15 -1.041761668283424161e-15 1.000000000000000000e+01 3.995234474328779576e-15 1.314710707463428300e-15 8.521678713408389005e-16 -1.998179999999999978e+01 8.718970000000000331e-01 -2.396399999999999864e+00 -2.400000000000000000e+01 2.587716255794618460e-15 2.828962161330470840e-15 -2.000000000000000000e+01 4.479683430239560910e-15 3.890923085130034217e-15 3.995234474328779576e-15 1.314710707463428300e-15 8.521678713408389005e-16 -2.000000000000000000e+01 1.689139451306497795e-15 5.332361616177140846e-15 -2.400000000000000000e+01 -4.454551230321704923e-15 3.939459445356993109e-15 -2.000000000000000000e+01 3.369459257809455011e-15 2.857573622845606023e-15 3.995234474328779576e-15 1.314710707463428300e-15 8.521678713408389005e-16 -1.997479999999999833e+01 -1.025649999999999951e+00 2.819380000000000219e+00 -2.400000000000000000e+01 2.109167247135090712e-16 -1.874573644553771898e-15 -2.000000000000000000e+01 4.087041423900053360e-15 -2.530959771657305306e-15 3.995234474328779576e-15 1.314710707463428300e-15 8.521678713408389005e-16 -1.978150000000000119e+01 -3.009479999999999933e+00 8.305149999999999366e+00 -2.400000000000000000e+01 5.302268138311947721e-15 -5.193461697144015350e-16 -2.000000000000000000e+01 8.545165713347070513e-17 2.137901439440631381e-15
